<?xml version="1.0" standalone="no"?>
<!DOCTYPE svg PUBLIC "-//W3C//DTD SVG 20010904//EN"
 "http://www.w3.org/TR/2001/REC-SVG-20010904/DTD/svg10.dtd">
<svg version="1.0" xmlns="http://www.w3.org/2000/svg"
 width="500.000000pt" height="500.000000pt" viewBox="0 0 500.000000 500.000000"
 preserveAspectRatio="xMidYMid meet">

<g transform="translate(0.000000,500.000000) scale(0.100000,-0.100000)"
fill="#000000" stroke="none">
<path d="M0 2500 l0 -2500 2500 0 2500 0 0 2500 0 2500 -2500 0 -2500 0 0
-2500z m2105 846 c64 -25 695 -351 774 -401 39 -24 61 -57 61 -91 0 -26 -56
-74 -86 -74 -16 0 -171 77 -383 189 -371 197 -448 231 -528 231 -92 0 -196
-69 -245 -163 -19 -34 -23 -58 -23 -127 0 -97 19 -143 81 -204 59 -57 118 -81
199 -80 81 0 137 22 203 77 55 46 92 49 133 8 53 -53 30 -112 -71 -179 -259
-173 -606 -56 -700 237 -19 59 -22 87 -18 168 3 84 8 107 35 166 34 71 112
163 171 199 116 72 275 89 397 44z m2089 -1098 c8 -14 6 -22 -10 -39 -18 -17
-25 -19 -43 -10 -22 12 -26 27 -15 56 8 21 53 16 68 -7z m-1864 -48 c0 -47 11
-63 25 -40 10 16 88 12 113 -6 12 -8 29 -28 37 -44 30 -58 12 -140 -37 -174
-30 -21 -96 -20 -120 1 -17 15 -18 15 -18 0 0 -13 -9 -17 -35 -17 l-35 0 0
165 0 165 35 0 35 0 0 -50z m862 -41 l3 -90 39 50 c36 48 41 51 83 51 l45 0
-56 -63 -55 -63 55 -62 56 -62 -44 0 c-41 0 -47 4 -86 51 l-42 52 0 -52 c0
-50 -1 -51 -30 -51 l-30 0 0 165 0 165 30 0 29 0 3 -91z m-1804 54 c3 -22 0
-23 -62 -23 l-66 0 0 -45 0 -45 51 0 c47 0 50 -2 47 -22 -3 -20 -10 -23 -50
-26 l-48 -3 0 -65 0 -64 -35 0 -35 0 0 160 0 161 98 -3 c92 -3 97 -4 100 -25z
m2297 10 c3 -10 26 -74 50 -143 24 -69 47 -133 50 -143 6 -14 1 -17 -28 -17
-30 0 -37 4 -46 30 -10 29 -12 30 -70 30 -57 0 -59 -1 -70 -30 -8 -26 -15 -30
-45 -30 l-35 0 46 128 c25 70 50 142 56 160 9 28 14 32 48 32 26 0 39 -5 44
-17z m-2104 -63 c13 -7 19 -7 19 0 0 5 16 10 35 10 l35 0 0 -125 0 -125 -35 0
c-26 0 -35 4 -35 17 0 15 -1 15 -18 0 -26 -24 -93 -22 -124 3 -60 46 -64 153
-9 202 34 30 94 38 132 18z m340 -19 c16 -16 29 -34 29 -40 0 -17 -66 -13 -80
4 -16 20 -49 19 -72 -2 -23 -21 -24 -89 -1 -115 20 -22 56 -23 73 -3 14 17 80
21 80 4 0 -6 -14 -24 -31 -40 -26 -24 -39 -29 -84 -29 -64 0 -99 24 -116 80
-16 54 -4 108 33 142 25 24 39 28 85 28 47 0 59 -4 84 -29z m247 13 c29 -20
52 -66 52 -104 l0 -30 -90 0 c-49 0 -90 -3 -90 -7 0 -3 7 -15 17 -25 20 -22
56 -23 73 -3 14 17 80 21 80 4 0 -6 -14 -24 -31 -40 -26 -24 -40 -29 -81 -29
-63 0 -103 27 -119 80 -16 54 -4 108 33 142 25 23 39 28 82 28 31 0 61 -6 74
-16z m592 -11 c57 -51 57 -145 1 -195 -26 -24 -40 -28 -87 -28 -50 0 -59 3
-90 34 -31 31 -34 40 -34 91 0 51 3 60 34 91 31 31 40 34 90 34 47 0 61 -4 86
-27z m279 2 c91 -77 42 -225 -75 -225 -83 0 -134 47 -134 125 0 78 49 124 132
125 36 0 54 -6 77 -25z m851 8 c0 -15 1 -15 18 0 11 10 36 17 61 17 36 0 49
-6 77 -34 31 -31 34 -40 34 -91 0 -51 -3 -60 -34 -91 -27 -27 -42 -34 -73 -34
-21 0 -49 7 -61 16 l-22 15 0 -75 0 -76 -35 0 -35 0 0 185 0 185 35 0 c26 0
35 -4 35 -17z m300 -108 l0 -125 -30 0 -30 0 0 125 0 125 30 0 30 0 0 -125z
m-2317 -337 c-8 -59 -13 -61 -13 -5 0 26 4 47 9 47 5 0 7 -19 4 -42z m53 -46
c-11 -10 -13 3 -7 48 l6 45 3 -44 c2 -23 1 -46 -2 -49z m118 79 c3 -5 -9 -8
-27 -7 -28 1 -32 -2 -35 -27 -4 -30 16 -44 46 -32 16 8 16 8 0 12 -25 6 -22
23 3 23 15 0 20 -5 17 -22 -2 -18 -11 -24 -35 -26 -27 -3 -35 1 -44 21 -16 35
3 67 41 67 16 0 31 -4 34 -9z m58 -28 c2 -30 7 -38 23 -38 16 0 21 9 26 40 l7
40 -2 -45 c-1 -40 -4 -45 -25 -48 -30 -5 -51 20 -51 60 0 42 18 34 22 -9z
m164 22 c4 -8 1 -22 -5 -29 -8 -10 -9 -16 -1 -21 5 -3 10 -12 9 -18 0 -7 -7
-2 -16 11 -8 12 -21 22 -29 22 -7 0 -15 -10 -17 -22 -2 -13 -5 -2 -6 25 -1 46
0 47 29 47 18 0 33 -6 36 -15z m79 -60 c16 0 21 9 26 40 l7 40 -2 -45 c-1 -43
-2 -45 -31 -45 -29 0 -30 2 -31 45 l-2 45 7 -40 c5 -31 10 -40 26 -40z m128
68 c-19 -4 -23 -11 -25 -46 l-1 -42 -4 42 c-3 29 -9 43 -21 46 -9 3 3 5 28 4
25 0 35 -2 23 -4z m57 -13 c0 -28 38 -26 50 3 7 17 9 11 8 -28 0 -27 -3 -40
-5 -27 -6 30 -53 32 -53 2 0 -11 -4 -20 -10 -20 -5 0 -10 20 -10 45 0 25 5 45
10 45 6 0 10 -9 10 -20z m143 13 c-41 -5 -45 -32 -5 -34 l27 -2 -27 -4 c-39
-6 -35 -31 5 -36 28 -3 26 -4 -10 -5 l-43 -2 0 45 0 45 43 -2 c36 -1 38 -2 10
-5z m131 -2 c3 -5 -9 -8 -27 -7 -28 1 -32 -2 -35 -27 -4 -30 16 -44 46 -32 16
8 16 8 0 12 -25 6 -22 23 3 23 15 0 20 -5 17 -22 -2 -18 -11 -24 -35 -26 -27
-3 -35 1 -44 21 -16 35 3 67 41 67 16 0 31 -4 34 -9z m81 -66 c16 0 21 9 26
40 l7 40 -2 -45 c-1 -43 -2 -45 -31 -45 -29 0 -30 2 -31 45 l-2 45 7 -40 c5
-31 10 -40 26 -40z m141 60 c4 -8 1 -22 -5 -29 -8 -10 -9 -16 -1 -21 5 -3 10
-12 9 -18 0 -7 -7 -2 -16 11 -8 12 -21 22 -29 22 -7 0 -15 -10 -17 -22 -2 -13
-5 -2 -6 25 -1 46 0 47 29 47 18 0 33 -6 36 -15z m79 -60 c16 0 21 9 26 40 l7
40 -2 -45 c-1 -43 -2 -45 -31 -45 -29 0 -30 2 -31 45 l-2 45 7 -40 c5 -31 10
-40 26 -40z m-1195 11 c0 -6 -7 -2 -15 8 -8 11 -15 25 -15 30 0 6 7 2 15 -8 8
-11 15 -25 15 -30z"/>
<path d="M2350 2100 c-41 -41 -14 -130 39 -130 35 0 65 34 65 75 0 64 -62 97
-104 55z"/>
<path d="M3636 2140 c-9 -24 -36 -102 -36 -106 0 -2 18 -4 40 -4 46 0 46 3 20
75 -11 32 -20 45 -24 35z"/>
<path d="M1499 2101 c-47 -37 -18 -131 40 -131 36 0 61 29 61 71 0 68 -52 100
-101 60z"/>
<path d="M2057 2102 c-26 -28 -21 -32 38 -32 58 0 66 7 37 33 -24 22 -55 21
-75 -1z"/>
<path d="M2631 2094 c-12 -15 -21 -37 -21 -49 0 -32 37 -75 65 -75 28 0 65 43
65 75 0 32 -37 75 -65 75 -14 0 -32 -11 -44 -26z"/>
<path d="M2920 2102 c-47 -38 -18 -132 41 -132 31 0 59 36 59 75 0 63 -54 94
-100 57z"/>
<path d="M3925 2108 c-28 -16 -35 -28 -35 -63 0 -16 4 -35 8 -41 9 -13 46 -34
62 -34 21 0 60 49 60 75 0 27 -40 75 -62 75 -7 0 -22 -6 -33 -12z"/>
<path d="M2210 1726 c0 -11 9 -16 26 -16 31 0 28 23 -4 28 -15 2 -22 -2 -22
-12z"/>
<path d="M2970 1726 c0 -11 9 -16 26 -16 31 0 28 23 -4 28 -15 2 -22 -2 -22
-12z"/>
</g>
</svg>
